# xmcd
#
# Track frame offsets:
#	150
#	39573
#	70896
#	100719
#	135492
#	160440
#	188463
#
# Disc length: 3036 seconds
#
# Revision: 1
# Processed by: cddbd v1.5.2PL0 Copyright (c) Steve Scherf et al.
# Submitted via: EasyCDDAExtractor 2010.6.0.0
#
DISCID=540bda07
DTITLE=Stuart Mitchell - Le Sette Meraviglie-432 Hz
DYEAR=2011
DGENRE=Meditative
TTITLE0=Babylon  432 Hz
TTITLE1=Artimes 432 Hz 
TTITLE2=Colossus 43 2hz
TTITLE3=Halicarnassus  432 Hz
TTITLE4=Zeus  432 Hz 
TTITLE5=Alexandria  432 Hz
TTITLE6=Giza  432 Hz
EXTD=
EXTT0=
EXTT1=
EXTT2=
EXTT3=
EXTT4=
EXTT5=
EXTT6=
PLAYORDER=
